<svg width="52" height="30" viewBox="0 0 62 50" fill="none" xmlns="http://www.w3.org/2000/svg">
<path d="M32.8095 27.1507H28.2944C28.2198 27.1507 28.1601 27.1805 28.1104 27.2253C28.0607 27.275 28.0358 27.3396 28.0358 27.4092V36.9269C28.0358 37.0015 28.0656 37.0612 28.1104 37.1109C28.1601 37.1606 28.2248 37.1855 28.2944 37.1855H32.8046C32.8792 37.1855 32.9388 37.1556 32.9886 37.1109C33.0383 37.0612 33.0631 36.9965 33.0631 36.9269V27.4092C33.0631 27.3347 33.0333 27.275 32.9886 27.2253C32.9438 27.1706 32.8792 27.1507 32.8095 27.1507ZM3.47091 6.94679H19.1298V2.45649C19.1298 1.77524 19.4083 1.1636 19.8508 0.721034C20.2984 0.278468 20.915 0 21.5863 0H39.5177C40.1989 0 40.8056 0.278468 41.2531 0.721034C41.6957 1.1636 41.9741 1.78518 41.9741 2.45649V6.94679H57.633C58.5927 6.94679 59.458 7.33963 60.0796 7.97116C60.7111 8.60269 61.1039 9.46793 61.1039 10.4177V18.8016C57.1805 21.4918 53.1328 23.7842 48.9607 25.6539C44.7638 27.5336 40.4376 28.9906 35.9622 29.995V26.6435C35.9622 25.8777 35.6489 25.1716 35.1467 24.6643C34.6445 24.1621 33.9383 23.8488 33.1676 23.8488H27.9314C27.1656 23.8488 26.4595 24.1621 25.9523 24.6643C25.45 25.1666 25.1367 25.8727 25.1367 26.6435V29.9204C20.7807 28.9209 16.5589 27.4888 12.4664 25.6539C8.18001 23.7345 4.02785 21.3625 0 18.5778V10.4177C0 9.45798 0.392839 8.59274 1.02437 7.97116C1.65092 7.33963 2.52113 6.94679 3.47091 6.94679ZM61.1039 23.7742V46.5291C61.1039 47.4888 60.7111 48.3541 60.0796 48.9756C59.448 49.6072 58.5828 50 57.633 50H3.47091C2.51119 50 1.64595 49.6072 1.02437 48.9756C0.392839 48.3441 0 47.4789 0 46.5291V23.5654C3.42616 25.7633 6.95177 27.6827 10.5768 29.3088C15.2561 31.4073 20.1094 33.0134 25.1417 34.0875V37.6927C25.1417 38.4585 25.455 39.1646 25.9572 39.6718C26.4595 40.174 27.1706 40.4873 27.9363 40.4873H33.1725C33.9383 40.4873 34.6445 40.174 35.1517 39.6718C35.6539 39.1696 35.9672 38.4635 35.9672 37.6927V33.9135L36.0219 34.1422C41.1487 33.0632 46.0915 31.4421 50.8553 29.3038C54.366 27.7325 57.7822 25.8826 61.1039 23.7742ZM37.6479 3.34659H23.4659C23.3814 3.34659 23.3118 3.37643 23.2471 3.44107C23.1974 3.4908 23.1527 3.57534 23.1527 3.65987V6.85231H37.9463V3.65987C37.9463 3.57534 37.9165 3.50572 37.8518 3.44107C37.8021 3.39135 37.7176 3.34659 37.633 3.34659H37.6479V3.34659Z" fill="#0A66C2"/>
</svg>
